<svg xmlns="http://www.w3.org/2000/svg" viewBox="0 0 77.4 89.27"><defs><style>.cls-1{fill:#0c436b;}</style></defs><g id="Layer_2" data-name="Layer 2"><g id="Layer_1-2" data-name="Layer 1"><path class="cls-1" d="M77.4,48.42V84.88A4.39,4.39,0,0,1,73,89.27H57.7a2,2,0,0,1-1.57-.77L25.23,48.84A3.74,3.74,0,0,0,20,48.19l-2.77,2.17a3.72,3.72,0,0,0-.65,5.23l25,32.07a1,1,0,0,1-.79,1.61H4.39A4.4,4.4,0,0,1,0,84.88V48.42a4.4,4.4,0,0,1,.93-2.7L18.26,23.49a2,2,0,0,1,3.14,0L57.13,69.37a2.75,2.75,0,0,0,3.84.48l4.35-3.4a2.73,2.73,0,0,0,.48-3.84L27.74,13.76a2,2,0,0,1,0-2.45l7.5-9.62a4.4,4.4,0,0,1,6.93,0l34.3,44A4.33,4.33,0,0,1,77.4,48.42Z"/></g></g></svg>