<svg xmlns="http://www.w3.org/2000/svg" viewBox="0 0 180.82 45.28"><defs><style>.cls-1{fill:#fff;}</style></defs><g id="Layer_2" data-name="Layer 2"><g id="Layer_1-2" data-name="Layer 1"><path class="cls-1" d="M38.91,24.44V42.77A2.21,2.21,0,0,1,36.7,45H29a1,1,0,0,1-.79-.38L12.68,24.66A1.88,1.88,0,0,0,10,24.33L8.65,25.42a1.87,1.87,0,0,0-.33,2.63L21.51,45H2.21A2.21,2.21,0,0,1,0,42.77V24.44a2.15,2.15,0,0,1,.47-1.35L9.18,11.91a1,1,0,0,1,1.57,0L28.72,35a1.39,1.39,0,0,0,1.93.24l2.19-1.71a1.39,1.39,0,0,0,.24-1.93L14,7a1,1,0,0,1,0-1.23L17.71,1A2.21,2.21,0,0,1,21.2,1L38.44,23.09A2.21,2.21,0,0,1,38.91,24.44Z"/><path class="cls-1" d="M52.74,0h1.47a5.11,5.11,0,0,1,4,1.89L59.18,3V3l9.58,11.41.54.64a1.29,1.29,0,0,0,1,.48h.58V0h5.28V20.82H69.71a5.12,5.12,0,0,1-4-1.89l-.93-1.1v0L55.15,6.4l-.55-.64a1.29,1.29,0,0,0-1-.48H53V20.82H47.73V0Z"/><path class="cls-1" d="M95.52,12.05h11.2l-2.54-4.21c-1.42-2.36-2.62-3.15-4.52-3.15s-3.1.79-4.53,3.15l-7.83,13H81.13L90.61,5.11a10.57,10.57,0,0,1,18.1,0l9.47,15.71H112l-2.47-4.09H92.7Z"/><path class="cls-1" d="M137,4.68V20.82h-5.29V4.68H122L119.15,0h30.47L146.8,4.68Z"/><path class="cls-1" d="M178,20.82H158.94a6.4,6.4,0,0,1-6.38-6.37V6.38A6.4,6.4,0,0,1,158.94,0h21.88L178,4.68H159.87a2,2,0,0,0-2,2v7.42a2,2,0,0,0,2,2h20.95Zm-4.87-8.07L176,8.07H160.77v4.68Z"/><path class="cls-1" d="M48.07,44.6a1.39,1.39,0,0,0,.57-.49,1.21,1.21,0,0,0,.23-.69V31.76a1.27,1.27,0,0,0-.23-.7,1.36,1.36,0,0,0-.57-.48l-.19-.09c-.1,0-.15-.1-.15-.17s.05-.12.15-.12h4.57a10.21,10.21,0,0,1,2.87.34,5.63,5.63,0,0,1,1.87.92,3.34,3.34,0,0,1,1,1.3,3.88,3.88,0,0,1,.31,1.47,3.7,3.7,0,0,1-.33,1.63,3.35,3.35,0,0,1-.9,1.14,4.46,4.46,0,0,1-1.3.73,11.15,11.15,0,0,1-1.56.41c-.13,0-.15.07-.05.14a4.94,4.94,0,0,1,.58.55,8,8,0,0,1,.58.74l.92,1.29c.34.48.7,1,1.08,1.42s.75.89,1.13,1.28a5,5,0,0,0,1.09.85,3,3,0,0,0,.55.21,3.19,3.19,0,0,0,.63.11c.09,0,.13,0,.13.12s0,.13-.13.13H59.84a3.86,3.86,0,0,1-1.71-.35,4.68,4.68,0,0,1-1.29-.92,7.88,7.88,0,0,1-1.05-1.28q-.49-.72-1-1.44t-.9-1.26a4.45,4.45,0,0,0-.65-.8,1.58,1.58,0,0,0-.65-.41,3,3,0,0,0-.94-.12h-.78a.17.17,0,0,0-.19.19v4.83a1.27,1.27,0,0,0,.23.7,1.44,1.44,0,0,0,.57.48l.19.09c.1.05.15.11.15.16s0,.13-.15.13H47.88c-.1,0-.15,0-.15-.13s.05-.11.15-.17Zm2.59-7.38a.17.17,0,0,0,.19.19h1.89a6.4,6.4,0,0,0,1.85-.28,3,3,0,0,0,1.43-.9,2.74,2.74,0,0,0,.57-1.88,3.35,3.35,0,0,0-.33-1.57,2.36,2.36,0,0,0-.92-1A4.08,4.08,0,0,0,54,31.32a10.57,10.57,0,0,0-1.75-.13H50.85a.17.17,0,0,0-.19.19Z"/><path class="cls-1" d="M62.47,44.6a1.28,1.28,0,0,0,.57-.49,1.21,1.21,0,0,0,.23-.69V31.76a1.27,1.27,0,0,0-.23-.7,1.25,1.25,0,0,0-.57-.48l-.19-.09c-.1,0-.15-.1-.15-.17s0-.12.15-.12H69a9.22,9.22,0,0,0,1.36-.11,8.37,8.37,0,0,0,1.11-.23c.11,0,.17,0,.17.12v2.79c0,.11-.07.17-.19.17a.15.15,0,0,1-.17-.17,1.4,1.4,0,0,0-.6-1.11,2.88,2.88,0,0,0-1.78-.47H65.26a.17.17,0,0,0-.19.19v4.49a.17.17,0,0,0,.19.19h2.17a1.36,1.36,0,0,0,.79-.23,1.91,1.91,0,0,0,.54-.59.21.21,0,0,1,.21-.13.13.13,0,0,1,.15.15v2.51c0,.1-.05.14-.15.14a.21.21,0,0,1-.21-.12,1.64,1.64,0,0,0-.54-.57,1.43,1.43,0,0,0-.79-.21H65.26a.17.17,0,0,0-.19.19v6.62a.17.17,0,0,0,.19.19h2.93a8.76,8.76,0,0,0,1.19-.07,2.89,2.89,0,0,0,1-.31,2.53,2.53,0,0,0,.8-.68,5.25,5.25,0,0,0,.68-1.22.21.21,0,0,1,.21-.12c.09,0,.13,0,.1.16l-1.09,3a.26.26,0,0,1-.26.19H62.28c-.1,0-.15,0-.15-.13s0-.11.15-.17Z"/><path class="cls-1" d="M73.46,44.6a2,2,0,0,0,1.24-1.14l5.23-12.1a.3.3,0,0,0,0-.34l-.27-.63c0-.12,0-.17.11-.17h1.41a.23.23,0,0,1,.25.17l5.38,13a2.16,2.16,0,0,0,.52.69,2.39,2.39,0,0,0,.79.49l.23.09a.15.15,0,0,1,.11.16.12.12,0,0,1-.13.13H84.6c-.09,0-.13,0-.13-.13a.15.15,0,0,1,.13-.16l.16-.09a.65.65,0,0,0,.39-.47,1,1,0,0,0-.05-.71l-1.39-3.35a.24.24,0,0,0-.25-.17h-6a.27.27,0,0,0-.28.17l-1.39,3.35a1.16,1.16,0,0,0-.07.71.61.61,0,0,0,.37.47l.19.09a.15.15,0,0,1,.1.16c0,.09,0,.13-.12.13H73.23c-.09,0-.13,0-.13-.13a.15.15,0,0,1,.13-.16Zm9.68-5.42c.13,0,.17-.06.13-.17l-2.72-6.56q-.09-.15-.15,0L77.68,39c-.07.11,0,.17.1.17Z"/><path class="cls-1" d="M89.89,44.6a1.44,1.44,0,0,0,.57-.48,1.27,1.27,0,0,0,.23-.7V31.78a1.27,1.27,0,0,0-.23-.7,1.44,1.44,0,0,0-.57-.48l-.19-.09c-.1,0-.15-.1-.15-.17s0-.12.15-.12h3.77q.15,0,.15.12c0,.07-.05.13-.15.17l-.19.09a1.35,1.35,0,0,0-.56.48,1.21,1.21,0,0,0-.24.7v12a.17.17,0,0,0,.19.19H95.6a8.82,8.82,0,0,0,1.2-.07,2.9,2.9,0,0,0,1-.32,2.76,2.76,0,0,0,.81-.7,4.65,4.65,0,0,0,.68-1.21.17.17,0,0,1,.19-.13c.13,0,.17.07.13.19l-1.12,3a.24.24,0,0,1-.25.19H89.7c-.1,0-.15,0-.15-.13s0-.11.15-.16Z"/><path class="cls-1" d="M108.87,44.6a1.28,1.28,0,0,0,.57-.49,1.14,1.14,0,0,0,.23-.69V31.76a1.19,1.19,0,0,0-.23-.7,1.25,1.25,0,0,0-.57-.48l-.19-.09c-.1,0-.15-.1-.15-.17s0-.12.15-.12h6.75a9.22,9.22,0,0,0,1.36-.11,8.37,8.37,0,0,0,1.11-.23c.11,0,.17,0,.17.12v2.79c0,.11-.07.17-.19.17a.15.15,0,0,1-.17-.17,1.4,1.4,0,0,0-.6-1.11,2.88,2.88,0,0,0-1.78-.47h-3.67a.17.17,0,0,0-.19.19v4.49a.17.17,0,0,0,.19.19h2.17a1.36,1.36,0,0,0,.79-.23,1.91,1.91,0,0,0,.54-.59.21.21,0,0,1,.21-.13.13.13,0,0,1,.15.15v2.51c0,.1,0,.14-.15.14a.21.21,0,0,1-.21-.12,1.64,1.64,0,0,0-.54-.57,1.43,1.43,0,0,0-.79-.21h-2.17a.17.17,0,0,0-.19.19v6.62a.17.17,0,0,0,.19.19h2.93a8.76,8.76,0,0,0,1.19-.07,2.89,2.89,0,0,0,1-.31,2.53,2.53,0,0,0,.8-.68,5.25,5.25,0,0,0,.68-1.22.21.21,0,0,1,.21-.12c.1,0,.13,0,.1.16l-1.09,3a.26.26,0,0,1-.26.19h-8.52c-.1,0-.15,0-.15-.13s0-.11.15-.17Z"/><path class="cls-1" d="M120.3,41c0-.13,0-.2.15-.22a.19.19,0,0,1,.23.13,6,6,0,0,0,1.67,2.51,4.14,4.14,0,0,0,2.76.89,3.87,3.87,0,0,0,1.31-.22,3.1,3.1,0,0,0,1-.61,2.4,2.4,0,0,0,.64-.9,2.87,2.87,0,0,0,.23-1.14,2.92,2.92,0,0,0-.19-1.07,2.41,2.41,0,0,0-.62-.84,5.55,5.55,0,0,0-1.07-.75c-.44-.24-1-.49-1.58-.76a14.63,14.63,0,0,1-2-1,6.18,6.18,0,0,1-1.25-1,3.14,3.14,0,0,1-.66-1.07,3.85,3.85,0,0,1-.18-1.19,3.5,3.5,0,0,1,.34-1.54,3.9,3.9,0,0,1,1-1.24,4.91,4.91,0,0,1,1.46-.81,5.45,5.45,0,0,1,1.78-.29,8.11,8.11,0,0,1,1.47.13,5.88,5.88,0,0,1,1.44.5c.13.06.21,0,.25-.08l.19-.43a.24.24,0,0,1,.22-.12A.14.14,0,0,1,129,30l.61,4.07a.15.15,0,0,1-.14.19c-.12,0-.19,0-.23-.14a5.68,5.68,0,0,0-.64-1.25,5.18,5.18,0,0,0-.94-1,4.38,4.38,0,0,0-1.19-.73,3.59,3.59,0,0,0-1.39-.27,2.44,2.44,0,0,0-1.85.67,2.56,2.56,0,0,0-.64,1.81,2.18,2.18,0,0,0,.73,1.68,8.15,8.15,0,0,0,2.41,1.4c.47.2,1,.44,1.48.72a8,8,0,0,1,1.43,1,5.11,5.11,0,0,1,1.09,1.28,3,3,0,0,1,.43,1.6,3.62,3.62,0,0,1-.43,1.77,4.24,4.24,0,0,1-1.16,1.37,5.39,5.39,0,0,1-1.7.89,6.55,6.55,0,0,1-2,.32,7.59,7.59,0,0,1-1.51-.17,11.79,11.79,0,0,1-1.61-.47.19.19,0,0,0-.26.11l-.19.4a.2.2,0,0,1-.19.1.14.14,0,0,1-.15-.12Z"/><path class="cls-1" d="M136.39,44.6a1.32,1.32,0,0,0,.57-.48,1.21,1.21,0,0,0,.24-.7v-12a.17.17,0,0,0-.19-.19h-2.6a2.79,2.79,0,0,0-1.79.5,1.46,1.46,0,0,0-.61,1.14c0,.09,0,.13-.15.13a.12.12,0,0,1-.13-.13V30c0-.11.06-.15.17-.12l.47.12a4.48,4.48,0,0,0,.61.11l.67.07a5.07,5.07,0,0,0,.66,0h7.59a4.82,4.82,0,0,0,.65,0l.68-.07a5.3,5.3,0,0,0,.62-.11l.47-.12c.12,0,.17,0,.17.12v2.81a.15.15,0,0,1-.17.17c-.11,0-.16-.06-.16-.17a1.41,1.41,0,0,0-.61-1.12,2.87,2.87,0,0,0-1.82-.48h-2.55a.17.17,0,0,0-.19.19v12a1.27,1.27,0,0,0,.23.7,1.44,1.44,0,0,0,.57.48l.19.09c.1.05.15.11.15.16s0,.13-.15.13H136.2c-.09,0-.14,0-.14-.13s.05-.11.14-.16Z"/><path class="cls-1" d="M143.27,44.6a2,2,0,0,0,1.25-1.14l5.23-12.1a.3.3,0,0,0,0-.34l-.28-.63c0-.12,0-.17.11-.17H151a.23.23,0,0,1,.25.17l5.38,13a2.32,2.32,0,0,0,.52.69,2.39,2.39,0,0,0,.79.49l.23.09a.15.15,0,0,1,.11.16.12.12,0,0,1-.13.13h-3.73c-.09,0-.13,0-.13-.13a.15.15,0,0,1,.13-.16l.17-.09a.69.69,0,0,0,.39-.47,1.09,1.09,0,0,0-.06-.71l-1.39-3.35a.24.24,0,0,0-.25-.17h-6a.25.25,0,0,0-.27.17l-1.4,3.35a1.16,1.16,0,0,0-.07.71.61.61,0,0,0,.37.47l.19.09a.15.15,0,0,1,.1.16c0,.09,0,.13-.12.13H143c-.09,0-.13,0-.13-.13a.15.15,0,0,1,.13-.16ZM153,39.18c.13,0,.17-.06.13-.17l-2.72-6.56q-.09-.15-.15,0L147.49,39c-.07.11,0,.17.1.17Z"/><path class="cls-1" d="M161.35,44.6a1.44,1.44,0,0,0,.57-.48,1.27,1.27,0,0,0,.23-.7v-12a.17.17,0,0,0-.19-.19h-2.6a2.81,2.81,0,0,0-1.79.5,1.46,1.46,0,0,0-.61,1.14c0,.09-.05.13-.15.13a.12.12,0,0,1-.13-.13V30c0-.11.06-.15.17-.12l.47.12a4.48,4.48,0,0,0,.61.11l.67.07a5.07,5.07,0,0,0,.66,0h7.59a5.07,5.07,0,0,0,.66,0l.67-.07a5,5,0,0,0,.62-.11l.48-.12c.11,0,.17,0,.17.12v2.81a.15.15,0,0,1-.17.17.15.15,0,0,1-.17-.17,1.43,1.43,0,0,0-.6-1.12,2.9,2.9,0,0,0-1.83-.48h-2.55a.17.17,0,0,0-.19.19v12a1.27,1.27,0,0,0,.23.7,1.44,1.44,0,0,0,.57.48l.19.09c.1.05.15.11.15.16s-.05.13-.15.13h-3.77c-.1,0-.15,0-.15-.13s.05-.11.15-.16Z"/><path class="cls-1" d="M171.13,44.6a1.28,1.28,0,0,0,.57-.49,1.14,1.14,0,0,0,.23-.69V31.76a1.19,1.19,0,0,0-.23-.7,1.25,1.25,0,0,0-.57-.48l-.19-.09c-.1,0-.14-.1-.14-.17s0-.12.14-.12h6.75a9.22,9.22,0,0,0,1.36-.11,8.37,8.37,0,0,0,1.11-.23c.11,0,.17,0,.17.12v2.79c0,.11-.06.17-.19.17a.15.15,0,0,1-.17-.17,1.4,1.4,0,0,0-.6-1.11,2.88,2.88,0,0,0-1.78-.47h-3.67a.17.17,0,0,0-.19.19v4.49a.17.17,0,0,0,.19.19h2.17a1.36,1.36,0,0,0,.79-.23,1.91,1.91,0,0,0,.54-.59.21.21,0,0,1,.21-.13.13.13,0,0,1,.15.15v2.51c0,.1-.05.14-.15.14a.21.21,0,0,1-.21-.12,1.64,1.64,0,0,0-.54-.57,1.43,1.43,0,0,0-.79-.21h-2.17a.17.17,0,0,0-.19.19v6.62a.17.17,0,0,0,.19.19h2.93a8.76,8.76,0,0,0,1.19-.07,2.82,2.82,0,0,0,1-.31,2.42,2.42,0,0,0,.8-.68,5.25,5.25,0,0,0,.68-1.22.21.21,0,0,1,.21-.12c.1,0,.13,0,.1.16l-1.09,3a.25.25,0,0,1-.26.19h-8.52c-.1,0-.14,0-.14-.13s0-.11.14-.17Z"/></g></g></svg>